<svg width="113" height="24" viewBox="0 0 113 24" fill="none" xmlns="http://www.w3.org/2000/svg">
<circle cx="101" cy="12" r="12" fill="#41DCD3"/>
<path d="M5.844 17L4.548 12.416H4.524L3.24 17H1.86L0.36 11H1.44L2.58 15.692H2.604L3.924 11H5.16L6.48 15.692H6.504L7.644 11H8.724L7.224 17H5.844ZM11.206 17H10.042V8.24H11.206V11.432L12.058 10.94H13.87L15.262 11.744V17H14.098V11.984H11.206V17ZM18.1028 14.54V16.016H20.5148V14.54H18.1028ZM18.3308 17.06L16.9388 16.256V14.3L18.3308 13.496H20.5148V12.044H17.5388V11H20.2868L21.6788 11.804V17.06H21.3668L20.5148 16.568L19.6628 17.06H18.3308ZM23.1206 12.044V11H24.2246V9.992L25.3886 9.32V11H26.8286V12.044H25.3886V15.956H26.8286V17H25.6166L24.2246 16.196V12.044H23.1206ZM32.18 19.4L33.224 16.724L30.908 11H32.072L33.776 15.272H33.8L35.492 11H36.656L33.32 19.4H32.18ZM42.9506 16.256L41.5586 17.06H39.2426L37.8506 16.256V11.744L39.2426 10.94H41.5586L42.9506 11.744V16.256ZM39.0146 11.984V16.016H41.7866V11.984H39.0146ZM44.8702 16.256V11H46.0342V16.016H48.8062V11H49.9702V17.06H49.0942L48.8062 16.568L47.9542 17.06H46.2622L44.8702 16.256ZM56.1709 17L55.0069 16.328V15.248L55.8589 14.756L55.0069 14.264V11.804L56.3989 11H60.2269V11.408L59.1349 12.044L59.8669 12.476V14.132L58.4749 14.936H56.1709V15.956H58.8349L60.2269 16.76V18.656L58.8349 19.46H56.1589L54.7669 18.656V17.912L55.9309 17.24V18.44H59.0629V17H56.1709ZM56.1709 12.02V13.916H58.7029V12.02H56.1709ZM67.0092 16.256L65.6172 17.06H63.3012L61.9092 16.256V11.744L63.3012 10.94H65.6172L67.0092 11.744V16.256ZM63.0732 11.984V16.016H65.8452V11.984H63.0732ZM74.0287 11.744V17H72.8648V11.984H70.0928V17H68.9288V10.94H69.8048L70.0928 11.432L70.9448 10.94H72.6368L74.0287 11.744ZM81.0483 11.744V17H79.8843V11.984H77.1123V17H75.9483V10.94H76.8243L77.1123 11.432L77.9643 10.94H79.6563L81.0483 11.744ZM83.8918 14.54V16.016H86.3038V14.54H83.8918ZM84.1198 17.06L82.7278 16.256V14.3L84.1198 13.496H86.3038V12.044H83.3278V11H86.0758L87.4678 11.804V17.06H87.1558L86.3038 16.568L85.4518 17.06H84.1198ZM93.8989 10.94H95.7109L96.5629 11.432V8.24H97.7269V17.06H96.8509L96.5629 16.568L95.7109 17.06H93.8989L92.5069 16.256V11.744L93.8989 10.94ZM96.5629 16.016V11.984H93.6709V16.016H96.5629ZM104.744 16.256L103.352 17.06H101.036L99.6436 16.256V11.744L101.036 10.94H103.352L104.744 11.744V16.256ZM100.808 11.984V16.016H103.58V11.984H100.808ZM109.267 12.308L109.159 13.784H108.199L108.079 12.032L109.471 11.228H110.383V9.32H107.983V10.4H106.783V9.044L108.175 8.24H110.191L111.583 9.044V11.504L110.191 12.308H109.267ZM107.779 17V15.2H109.579V17H107.779Z" fill="black"/>
</svg>
